<?xml version="1.0" encoding="UTF-8" standalone="no"?>
<svg width="50px" height="50px" viewBox="0 0 50 50" version="1.1" xmlns="http://www.w3.org/2000/svg" xmlns:xlink="http://www.w3.org/1999/xlink" xmlns:sketch="http://www.bohemiancoding.com/sketch/ns">
  <circle fill="#FFFFFF" cx="25" cy="25" r="24"></circle>
  <path d="M49.5535714,24.9848198 C49.5535714,11.4242567 38.5605631,0.431248372 25,0.431248372 C11.4394369,0.431248372 0.446428571,11.4242567 0.446428571,24.9848198 C0.446428571,38.5453829 11.4394369,49.5383912 25,49.5383912 C38.5605631,49.5383912 49.5535714,38.5453829 49.5535714,24.9848198 Z M2.41071429,24.9848198 C2.41071429,12.5091018 12.524282,2.39553409 25,2.39553409 C37.475718,2.39553409 47.5892857,12.5091018 47.5892857,24.9848198 C47.5892857,37.4605378 37.475718,47.5741055 25,47.5741055 C12.524282,47.5741055 2.41071429,37.4605378 2.41071429,24.9848198 Z" fill="#0050FF"></path>
  <circle fill="#0050FF" cx="32.0714286" cy="19.4848198" r="2.35714286"></circle>
  <circle fill="#0050FF" cx="18.125" cy="19.4848198" r="2.35714286"></circle>
  <path d="M25.0982143,34.4259627 C22.2105286,34.4259627 19.5080869,32.8466133 17.6447501,30.126237 C17.3382258,29.6787272 16.7269603,29.5644359 16.2794505,29.8709602 C15.8319407,30.1774845 15.7176494,30.78875 16.0241737,31.2362598 C18.2371995,34.4671639 21.5278099,36.3902484 25.0982143,36.3902484 C28.6686187,36.3902484 31.9592291,34.4671639 34.1722548,31.2362598 C34.4787792,30.78875 34.3644878,30.1774845 33.916978,29.8709602 C33.4694682,29.5644359 32.8582028,29.6787272 32.5516785,30.126237 C30.6883416,32.8466133 27.9859,34.4259627 25.0982143,34.4259627 Z" fill="#0050FF"></path>
</svg>
