<?xml version="1.0" encoding="utf-8"?>
<!-- Generator: Adobe Illustrator 16.0.3, SVG Export Plug-In . SVG Version: 6.00 Build 0)  -->
<!DOCTYPE svg PUBLIC "-//W3C//DTD SVG 1.1//EN" "http://www.w3.org/Graphics/SVG/1.1/DTD/svg11.dtd">
<svg version="1.1" id="Layer_1" xmlns="http://www.w3.org/2000/svg" xmlns:xlink="http://www.w3.org/1999/xlink" x="0px" y="0px"
	 width="279.947px" height="85.073px" viewBox="0 0 279.947 85.073" enable-background="new 0 0 279.947 85.073"
	 xml:space="preserve">
<g id="Pimiento">
	<g>
		<path fill="none" stroke="#000000" stroke-miterlimit="10" d="M2.646,29.116c1.251-1.06,3.056-2.497,4.57-3.281
			c1.849-0.957,3.305-1.243,5.417-1.337c1.611-0.071,6.246,1.511,7.566,2.406"/>
		<path fill="none" stroke="#000000" stroke-miterlimit="10" d="M20.659,19.992c0.916,0.458,1.489,1.294,2.007,2.024
			c0.387,0.545,0.781,1.709,0.854,2.219"/>
		<path fill="none" stroke="#000000" stroke-miterlimit="10" d="M17.199,76.86c-0.521-1.07-0.832-2.589-1.683-3.489
			c-0.765-0.81-1.314-1.719-1.846-2.705c-0.757-1.404-1.251-3.017-1.831-4.508c-0.858-2.207-1.359-4.197-1.67-6.546
			c-0.423-3.196-1.02-6.239-0.848-9.502c0.182-3.48,0.079-7.044,0.582-10.494c0.661-4.527,2.214-11.214,7.377-12.428
			c0.506-0.119,2.428-0.237,2.938-0.079"/>
		<path fill="none" stroke="#000000" stroke-miterlimit="10" d="M38.875,79.384c-0.309-0.177,3.504-6.927,3.837-7.665
			c0.929-2.061,1.092-4.336,1.322-6.546c0.155-1.482,0.669-2.865,0.788-4.351c0.094-1.17,0.142-2.358,0.196-3.532
			c0.113-2.456,0.147-4.981-0.055-7.432c-0.245-2.974-0.771-5.917-1.071-8.889c-0.362-3.584,0.329-7.896-2.869-10.18"/>
		<path fill="none" stroke="#000000" stroke-miterlimit="10" d="M45.371,27.384c4.326-1.452,9.603-0.531,12.656,2.834
			c2.09,2.303,3.145,5.354,3.976,8.308c0.18,0.638,0.718,2.789,0.88,3.431"/>
		<path fill="none" stroke="#000000" stroke-miterlimit="10" d="M44.751,26.209c1.056-1.2,4.912-3.923,6.248-4.491"/>
	</g>
	<g>
		<path fill="none" stroke="#000000" stroke-width="3" stroke-miterlimit="10" d="M61.9,27.335c-0.959-1.943-2.498-4.158-4.507-5.08
			c-1.618-0.741-4.7-1.418-6.394-0.537c-0.184-1.065-1.207-2.279-1.897-3.063c-1.56-1.771-4.253-2.304-6.95-2.45
			c-0.21,0.657-0.372,1.33-0.629,1.956c-0.191,0.466-0.526,0.838-0.706,1.314c-0.141,0.373-0.192,0.756-0.271,1.128
			c-0.168,0.798-0.432,1.594-0.61,2.394c-0.026,0.116-0.049,0.245-0.068,0.378c0.286,0.01,0.571,0.05,0.855,0.139
			c0.92,0.287,1.336,0.863,2.006,1.486c0.53,0.492,1.275,0.531,1.821,1.021c0.372,0.332,0.682,0.692,0.741,1.196
			c0.058,0.498-0.216,0.528-0.616,0.724c-0.519,0.253-1.03,0.619-1.462,1.003c-0.765,0.679-1.177,1.871-2.375,1.856
			c-0.916-0.011-1.578-0.465-2.28-0.95c-0.874-0.605-4.968-0.424-6.283-0.247c-0.913,0.124-1.86,0.554-2.552,1.057
			c-0.469,0.34-1.189,0.847-1.82,0.556c-0.519-0.238-0.597-0.906-0.827-1.367c-0.592-1.18-1.872-1.697-3.074-2.083
			c-0.655-0.211-1.278-0.422-1.937-0.554c-0.34-0.067-0.503-0.108-0.842-0.044c-0.21,0.04-0.867,0.163-1.005-0.057
			c-0.126-0.198,0.178-0.638,0.309-0.772c0.27-0.277,0.721-0.369,1.047-0.572c0.544-0.338,1.052-0.77,1.54-1.196
			c0.264-0.231,0.588-0.415,0.799-0.701c0.166-0.224,0.236-0.613,0.477-0.77c0.142-0.092,0.403-0.111,0.571-0.113
			c0.47-0.007,0.936,0.045,1.409,0c0.803-0.077,1.679-0.026,2.49,0.043c0.241,0.021,0.483,0.031,0.726,0.042
			c0.113-0.213,0.216-0.435,0.309-0.671c0.49-1.25,1.09-2.435,1.62-3.662c0.385-0.894,0.75-1.773,1.167-2.633
			c-3.48-0.021-7.749,0.07-9.065,0.579c-1.551,0.602-2.957,3.31-2.957,3.31c-3.327-1.428-9.568,0.243-12.461,2.581
			c-2.816,2.276-5.704,5.803-6.454,8.824c-1.019,4.107,1.444,8.564,1.889,12.704c0.506,4.705,1.094,8.985,1.501,13.58
			c0.69,7.787,2.385,17.128,11.371,18.984c3.778,0.78,5.217,5.479,8.941,6.336c1.848,0.425,4.843,0.146,6.623-0.005
			c1.864-0.158,4.209-0.551,5.741-1.801c0.459-0.374,0.663-1.07,0.695-1.627c0.435-0.195,0.53-0.279,0.895-0.587
			c3.639,1.013,8.55-0.639,11.525-2.729c3.848-2.703,5.613-4.6,7.258-8.67c0.696-1.722,2.965-9.647,3.379-11.757
			c0.841-4.28,1.046-8.479,1.28-13.177C63.081,37.877,64.12,31.83,61.9,27.335z"/>
		<path fill="none" stroke="#000000" stroke-width="3" stroke-miterlimit="10" d="M42.152,16.204
			c0.104-0.324,0.219-0.645,0.366-0.954c0.52-1.095,1.208-2.092,1.877-3.106c0.867-1.314,2.262-2.275,3.875-1.88
			c1.331,0.327,2.517,1.396,3.577,2.219c0.702,0.546,1.387,1.256,2.347,1.176c0.971-0.081,1.468-0.746,2.112-1.363
			c0.326-0.312,0.601-0.597,1.033-0.751c0.472-0.17,0.781-0.082,1.042-0.459c0.468-0.676,0.823-1.522,1.22-2.274
			c0.252-0.479,0.396-0.588,0.189-1.033c-0.164-0.353-0.243-0.612-0.33-1.021c-0.168-0.795-0.578-1.649-0.915-2.395
			c-1.008-2.226-3.665-2.857-5.901-2.862c-4.27-0.01-7.911,1.928-11.348,4.261c-1.596,1.083-2.96,2.257-4.175,3.754
			c-1.182,1.455-2.316,3.09-3.357,4.658c-0.417,0.628-0.766,1.273-1.084,1.931"/>
	</g>
</g>
<g>
	<path d="M86.03,29.105h11.088c1.952,0,3.712,0.177,5.28,0.528c1.568,0.353,2.912,0.929,4.032,1.729
		c1.12,0.8,1.984,1.823,2.592,3.071c0.607,1.248,0.912,2.753,0.912,4.513c0,1.888-0.353,3.472-1.056,4.752
		c-0.704,1.279-1.656,2.311-2.856,3.096c-1.2,0.783-2.6,1.352-4.2,1.703c-1.601,0.354-3.296,0.527-5.088,0.527h-4.656v14.064H86.03
		V29.105z M96.302,43.937c0.991,0,1.936-0.07,2.832-0.215c0.896-0.145,1.696-0.4,2.4-0.768c0.704-0.368,1.264-0.872,1.68-1.513
		c0.415-0.64,0.624-1.471,0.624-2.495c0-0.992-0.208-1.801-0.624-2.425c-0.417-0.624-0.968-1.111-1.656-1.464
		c-0.688-0.352-1.472-0.583-2.352-0.695c-0.88-0.112-1.784-0.169-2.712-0.169h-4.416v9.744H96.302z"/>
	<path d="M113.15,32.225c0-0.928,0.344-1.735,1.032-2.424c0.688-0.688,1.56-1.032,2.616-1.032c1.056,0,1.944,0.329,2.664,0.984
		c0.72,0.656,1.08,1.48,1.08,2.472c0,0.992-0.36,1.816-1.08,2.473c-0.72,0.656-1.608,0.983-2.664,0.983
		c-1.056,0-1.928-0.344-2.616-1.032C113.494,33.961,113.15,33.154,113.15,32.225z M113.966,40.049h5.76v23.04h-5.76V40.049z"/>
	<path d="M154.237,39.377c1.504,0,2.791,0.264,3.864,0.792c1.071,0.528,1.951,1.224,2.64,2.088c0.688,0.864,1.191,1.857,1.512,2.976
		c0.32,1.121,0.48,2.271,0.48,3.455v14.4h-5.76V50.321c0-0.672-0.049-1.375-0.145-2.111s-0.305-1.4-0.623-1.992
		c-0.32-0.592-0.762-1.08-1.32-1.465c-0.561-0.383-1.305-0.576-2.232-0.576c-0.896,0-1.664,0.193-2.305,0.576
		c-0.64,0.385-1.168,0.881-1.584,1.488s-0.719,1.289-0.911,2.041s-0.288,1.496-0.288,2.23v12.576h-5.76v-13.92
		c0-1.439-0.345-2.631-1.032-3.576c-0.688-0.943-1.769-1.416-3.24-1.416c-0.864,0-1.616,0.186-2.256,0.553
		c-0.641,0.367-1.16,0.84-1.56,1.416c-0.4,0.576-0.704,1.24-0.912,1.992c-0.208,0.752-0.312,1.512-0.312,2.279v12.672h-5.76v-23.04
		h5.472v3.696h0.096c0.256-0.576,0.6-1.12,1.032-1.631c0.432-0.512,0.943-0.977,1.536-1.393c0.592-0.415,1.272-0.744,2.04-0.983
		c0.768-0.24,1.615-0.36,2.544-0.36c1.792,0,3.28,0.4,4.464,1.2s2.096,1.856,2.736,3.167c0.768-1.408,1.792-2.488,3.072-3.24
		C151.005,39.753,152.509,39.377,154.237,39.377z"/>
	<path d="M168.733,32.225c0-0.928,0.344-1.735,1.032-2.424c0.688-0.688,1.56-1.032,2.616-1.032c1.056,0,1.943,0.329,2.664,0.984
		c0.72,0.656,1.08,1.48,1.08,2.472c0,0.992-0.36,1.816-1.08,2.473c-0.721,0.656-1.608,0.983-2.664,0.983
		c-1.057,0-1.929-0.344-2.616-1.032C169.077,33.961,168.733,33.154,168.733,32.225z M169.55,40.049h5.76v23.04h-5.76V40.049z"/>
	<path d="M204.302,51.856c0,0.258,0,0.514,0,0.77s-0.018,0.512-0.049,0.768h-17.52c0.063,0.832,0.279,1.592,0.648,2.279
		c0.367,0.689,0.855,1.281,1.463,1.777s1.297,0.887,2.064,1.176c0.768,0.287,1.568,0.432,2.4,0.432c1.439,0,2.655-0.264,3.648-0.793
		c0.99-0.527,1.807-1.254,2.447-2.184l3.84,3.072c-2.272,3.072-5.568,4.607-9.888,4.607c-1.792,0-3.44-0.279-4.944-0.84
		c-1.504-0.559-2.808-1.352-3.912-2.375c-1.104-1.023-1.968-2.281-2.592-3.768c-0.624-1.488-0.936-3.176-0.936-5.064
		c0-1.855,0.312-3.545,0.936-5.064s1.48-2.816,2.568-3.888c1.088-1.071,2.376-1.903,3.863-2.496
		c1.488-0.592,3.097-0.888,4.824-0.888c1.6,0,3.08,0.264,4.44,0.792c1.359,0.528,2.536,1.312,3.528,2.352
		c0.991,1.041,1.768,2.337,2.328,3.888C204.021,47.962,204.302,49.778,204.302,51.856z M198.542,49.265
		c0-0.734-0.105-1.439-0.312-2.111c-0.209-0.672-0.537-1.264-0.984-1.775c-0.448-0.512-1.016-0.92-1.703-1.225
		c-0.689-0.305-1.497-0.455-2.425-0.455c-1.728,0-3.192,0.52-4.392,1.559c-1.2,1.041-1.865,2.377-1.992,4.008H198.542z"/>
	<path d="M209.868,40.049h5.473v3.696h0.096c0.512-1.152,1.399-2.167,2.664-3.047c1.264-0.88,2.76-1.32,4.488-1.32
		c1.504,0,2.791,0.264,3.863,0.792s1.952,1.224,2.641,2.088c0.688,0.864,1.191,1.857,1.512,2.976c0.32,1.121,0.48,2.271,0.48,3.455
		v14.4h-5.76V50.321c0-0.672-0.049-1.375-0.145-2.111s-0.305-1.4-0.624-1.992c-0.32-0.592-0.761-1.08-1.319-1.465
		c-0.561-0.383-1.305-0.576-2.232-0.576c-0.929,0-1.729,0.186-2.4,0.553s-1.225,0.84-1.656,1.416s-0.76,1.24-0.984,1.992
		c-0.224,0.752-0.336,1.512-0.336,2.279v12.672h-5.76V40.049z"/>
	<path d="M234.491,44.657v-4.608h4.032v-6.672h5.664v6.672h5.761v4.608h-5.761v10.705c0,1.023,0.185,1.871,0.552,2.543
		s1.192,1.008,2.473,1.008c0.384,0,0.799-0.039,1.248-0.119c0.447-0.08,0.848-0.199,1.199-0.361l0.192,4.514
		c-0.513,0.191-1.12,0.342-1.823,0.455c-0.705,0.111-1.377,0.168-2.017,0.168c-1.536,0-2.784-0.217-3.744-0.648
		s-1.72-1.023-2.28-1.775s-0.943-1.615-1.152-2.592c-0.208-0.977-0.312-2.023-0.312-3.145V44.657H234.491z"/>
	<path d="M252.78,51.474c0-1.824,0.328-3.48,0.984-4.969c0.654-1.488,1.543-2.76,2.663-3.816c1.12-1.056,2.448-1.872,3.984-2.447
		c1.536-0.576,3.168-0.864,4.896-0.864c1.729,0,3.36,0.288,4.896,0.864c1.535,0.575,2.863,1.392,3.984,2.447
		c1.119,1.056,2.008,2.328,2.664,3.816c0.654,1.488,0.983,3.145,0.983,4.969s-0.329,3.488-0.983,4.992
		c-0.656,1.504-1.545,2.791-2.664,3.863c-1.121,1.072-2.449,1.912-3.984,2.52c-1.536,0.607-3.168,0.912-4.896,0.912
		c-1.728,0-3.359-0.305-4.896-0.912s-2.864-1.447-3.984-2.52s-2.009-2.359-2.663-3.863C253.108,54.962,252.78,53.298,252.78,51.474z
		 M258.636,51.474c0,0.896,0.136,1.793,0.408,2.688c0.271,0.896,0.68,1.697,1.225,2.4c0.543,0.703,1.23,1.279,2.063,1.729
		c0.831,0.447,1.823,0.672,2.976,0.672s2.145-0.225,2.977-0.672c0.832-0.449,1.52-1.025,2.064-1.729
		c0.543-0.703,0.951-1.504,1.223-2.4c0.271-0.895,0.408-1.791,0.408-2.688s-0.137-1.783-0.408-2.664s-0.68-1.672-1.223-2.377
		c-0.545-0.703-1.232-1.271-2.064-1.703s-1.824-0.648-2.977-0.648s-2.145,0.217-2.976,0.648c-0.833,0.432-1.521,1-2.063,1.703
		c-0.545,0.705-0.953,1.496-1.225,2.377C258.771,49.69,258.636,50.577,258.636,51.474z"/>
</g>
<g>
</g>
<g>
</g>
<g>
</g>
<g>
</g>
<g>
</g>
<g>
</g>
<g>
</g>
<g>
</g>
<g>
</g>
<g>
</g>
<g>
</g>
<g>
</g>
<g>
</g>
<g>
</g>
<g>
</g>
</svg>
