<?xml version="1.0" encoding="utf-8"?>
<!-- Generator: Adobe Illustrator 16.0.3, SVG Export Plug-In . SVG Version: 6.00 Build 0)  -->
<!DOCTYPE svg PUBLIC "-//W3C//DTD SVG 1.1//EN" "http://www.w3.org/Graphics/SVG/1.1/DTD/svg11.dtd">
<svg version="1.1" id="Layer_1" xmlns="http://www.w3.org/2000/svg" xmlns:xlink="http://www.w3.org/1999/xlink" x="0px" y="0px"
	 width="206.667px" height="41.078px" viewBox="0 0 206.667 41.078" enable-background="new 0 0 206.667 41.078"
	 xml:space="preserve">
<g>
	<path d="M13.268,14.863c0.075,0.012,0.153,0.019,0.234,0.019c0.081,0,0.166,0,0.253,0c1.088,0,2.117-0.234,3.087-0.704
		c0.969-0.469,1.817-1.066,2.542-1.792s1.298-1.533,1.717-2.421c0.419-0.888,0.629-1.751,0.629-2.59c0-0.601-0.11-1.169-0.329-1.708
		C21.183,5.13,20.839,4.661,20.37,4.26c-0.469-0.4-1.069-0.719-1.801-0.957c-0.732-0.237-1.604-0.356-2.618-0.356
		c-1.138,0-2.117,0.106-2.937,0.319c-0.82,0.212-1.526,0.488-2.121,0.826c-0.594,0.337-1.095,0.726-1.501,1.163
		C8.985,5.692,8.635,6.143,8.341,6.605c-0.294,0.463-0.56,0.914-0.797,1.352C7.306,8.395,7.059,8.783,6.803,9.12
		C6.546,9.458,6.261,9.733,5.949,9.946c-0.313,0.213-0.701,0.319-1.164,0.319c-0.625,0-1.095-0.16-1.407-0.479
		C3.065,9.467,2.909,9.021,2.909,8.445c0-0.538,0.147-1.12,0.441-1.745s0.713-1.251,1.257-1.877c0.544-0.625,1.21-1.229,1.999-1.811
		C7.394,2.43,8.279,1.917,9.261,1.473c0.982-0.444,2.055-0.8,3.218-1.069C13.643,0.135,14.875,0,16.176,0
		c1.276,0,2.499,0.163,3.668,0.488c1.169,0.325,2.205,0.81,3.106,1.454c0.9,0.645,1.617,1.455,2.148,2.43s0.797,2.114,0.797,3.416
		c0,0.875-0.159,1.711-0.479,2.505c-0.319,0.795-0.748,1.539-1.285,2.233c-0.538,0.694-1.167,1.333-1.886,1.914
		s-1.485,1.098-2.299,1.548c-0.813,0.45-1.648,0.832-2.505,1.145c-0.857,0.313-1.686,0.538-2.487,0.675
		c0.113,0.588,0.297,1.248,0.554,1.98s0.569,1.426,0.938,2.083c0.369,0.656,0.779,1.217,1.229,1.679
		c0.451,0.463,0.926,0.714,1.426,0.751c0.1,0.013,0.194,0.019,0.281,0.019s0.175,0,0.263,0c0.913,0,1.726-0.149,2.439-0.45
		c0.713-0.3,1.307-0.632,1.783-0.994c0.563-0.413,1.051-0.895,1.463-1.445c0.388-0.438,0.782-0.657,1.183-0.657
		c0.25,0,0.462,0.087,0.638,0.262c0.175,0.176,0.263,0.413,0.263,0.714c0,0.287-0.091,0.622-0.272,1.004
		c-0.182,0.382-0.491,0.778-0.929,1.191c-1.289,1.214-2.549,2.099-3.781,2.655c-1.232,0.557-2.399,0.835-3.5,0.835
		c-0.901,0-1.733-0.257-2.496-0.77c-0.763-0.513-1.458-1.207-2.083-2.083c-0.626-0.875-1.195-1.898-1.708-3.068
		c-0.513-1.169-0.97-2.404-1.37-3.706c-0.225,0.513-0.457,1.117-0.694,1.811c-0.238,0.694-0.495,1.411-0.77,2.149
		c-0.275,0.738-0.563,1.467-0.863,2.187c-0.3,0.719-0.632,1.363-0.995,1.933s-0.75,1.029-1.164,1.379
		c-0.413,0.351-0.863,0.525-1.351,0.525c-0.4,0-0.726-0.062-0.976-0.188c-0.25-0.125-0.444-0.281-0.582-0.469
		c-0.138-0.188-0.234-0.395-0.291-0.619c-0.057-0.226-0.084-0.438-0.084-0.639c0-0.287,0.038-0.582,0.112-0.882
		c0.075-0.3,0.182-0.582,0.319-0.845l5.536-10.133c0.476-0.851,0.954-1.673,1.436-2.468c0.481-0.794,0.951-1.498,1.408-2.111
		c0.457-0.613,0.888-1.104,1.295-1.473c0.406-0.369,0.772-0.554,1.098-0.554c0.087,0,0.194,0.016,0.319,0.047
		s0.238,0.088,0.338,0.169c0.1,0.082,0.188,0.2,0.263,0.356c0.075,0.157,0.113,0.354,0.113,0.591s-0.069,0.569-0.207,0.995
		s-0.319,0.913-0.544,1.463c-0.225,0.551-0.488,1.154-0.788,1.811S13.593,14.175,13.268,14.863z"/>
	<path d="M33.271,13.417c1.039,0,1.814,0.25,2.327,0.751c0.513,0.5,0.77,1.195,0.77,2.083c0,0.525-0.138,1.076-0.413,1.651
		c-0.275,0.575-0.75,1.16-1.426,1.754c-0.675,0.594-1.58,1.201-2.711,1.82c-1.132,0.619-2.549,1.242-4.25,1.867
		c0.062,0.363,0.256,0.647,0.582,0.854c0.325,0.207,0.757,0.31,1.295,0.31c0.575,0,1.192-0.084,1.849-0.253s1.307-0.385,1.952-0.647
		c0.644-0.263,1.273-0.547,1.886-0.854s1.167-0.598,1.661-0.873c0.494-0.274,0.907-0.513,1.239-0.713s0.554-0.325,0.666-0.375
		c0.113-0.075,0.216-0.119,0.31-0.131c0.094-0.012,0.179-0.019,0.253-0.019c0.15,0,0.275,0.035,0.375,0.103
		c0.1,0.069,0.185,0.15,0.253,0.244c0.068,0.094,0.115,0.194,0.141,0.301c0.025,0.106,0.038,0.197,0.038,0.271
		c0,0.113-0.013,0.248-0.038,0.404c-0.025,0.156-0.119,0.334-0.281,0.534c-0.063,0.063-0.272,0.231-0.629,0.507
		s-0.816,0.601-1.379,0.976c-0.563,0.376-1.217,0.773-1.961,1.192c-0.745,0.419-1.533,0.804-2.364,1.153
		c-0.833,0.351-1.698,0.642-2.599,0.873s-1.789,0.347-2.665,0.347c-0.75,0-1.417-0.144-1.999-0.432
		c-0.582-0.287-1.076-0.675-1.482-1.163s-0.716-1.051-0.929-1.688c-0.213-0.639-0.319-1.308-0.319-2.009
		c0-0.537,0.106-1.129,0.319-1.773c0.212-0.644,0.519-1.292,0.919-1.942c0.4-0.65,0.892-1.285,1.473-1.905
		c0.582-0.619,1.235-1.166,1.961-1.642s1.523-0.857,2.393-1.145C31.354,13.562,32.283,13.417,33.271,13.417z M32.596,16.007
		c-0.063-0.012-0.119-0.019-0.169-0.019c-0.05,0-0.106,0-0.169,0c-0.476,0-0.919,0.094-1.333,0.281
		c-0.413,0.188-0.791,0.435-1.135,0.741c-0.344,0.307-0.65,0.654-0.919,1.042c-0.269,0.388-0.51,0.772-0.723,1.154
		s-0.391,0.748-0.535,1.098c-0.144,0.351-0.253,0.645-0.328,0.882c0.438-0.225,0.891-0.481,1.36-0.769
		c0.469-0.288,0.91-0.563,1.323-0.826c0.413-0.263,0.772-0.5,1.079-0.713c0.307-0.212,0.522-0.356,0.647-0.432
		c0.563-0.35,0.951-0.678,1.164-0.985c0.212-0.306,0.319-0.572,0.319-0.797c0-0.188-0.06-0.338-0.178-0.45
		C32.88,16.101,32.746,16.033,32.596,16.007z"/>
	<path d="M44.005,26.441c0-0.601,0.134-1.214,0.404-1.84c0.269-0.625,0.61-1.27,1.022-1.933c0.413-0.663,0.863-1.335,1.351-2.017
		c0.488-0.682,0.951-1.379,1.389-2.092c0.125-0.2,0.226-0.391,0.3-0.572c0.075-0.182,0.113-0.366,0.113-0.554
		c0-0.2-0.056-0.366-0.169-0.498s-0.275-0.197-0.488-0.197c-0.513,0-1.007,0.109-1.482,0.328c-0.476,0.219-0.932,0.507-1.37,0.863
		c-0.438,0.357-0.854,0.767-1.248,1.229s-0.763,0.941-1.107,1.436c-0.344,0.494-0.667,0.985-0.966,1.473
		c-0.3,0.488-0.576,0.933-0.826,1.333c-0.226,0.412-0.432,0.863-0.62,1.351c-0.188,0.488-0.391,0.938-0.61,1.352
		s-0.466,0.76-0.741,1.041c-0.275,0.281-0.619,0.423-1.032,0.423c-0.45,0-0.807-0.145-1.069-0.432
		c-0.263-0.288-0.394-0.632-0.394-1.032c0-0.226,0.081-0.575,0.244-1.051s0.372-1.029,0.629-1.661
		c0.256-0.632,0.547-1.304,0.873-2.018c0.325-0.713,0.647-1.419,0.966-2.12s0.619-1.361,0.901-1.98
		c0.281-0.619,0.516-1.147,0.704-1.585c0.225-0.538,0.522-0.938,0.892-1.201c0.369-0.263,0.734-0.394,1.098-0.394
		c0.312,0,0.591,0.116,0.835,0.347s0.366,0.566,0.366,1.004c0,0.326-0.075,0.682-0.226,1.07c0.338-0.312,0.701-0.65,1.088-1.014
		c0.388-0.363,0.81-0.697,1.267-1.004c0.457-0.306,0.966-0.56,1.529-0.76s1.194-0.3,1.895-0.3c0.35,0,0.682,0.044,0.995,0.131
		c0.313,0.087,0.591,0.225,0.835,0.413c0.244,0.188,0.444,0.432,0.6,0.732c0.157,0.3,0.247,0.664,0.272,1.088
		c0.288-0.288,0.601-0.572,0.938-0.854c0.338-0.282,0.704-0.535,1.098-0.76s0.822-0.406,1.285-0.544s0.976-0.207,1.539-0.207
		c0.413,0,0.807,0.044,1.182,0.131s0.71,0.234,1.004,0.441s0.525,0.472,0.694,0.797c0.169,0.326,0.253,0.726,0.253,1.201
		c0,0.75-0.172,1.464-0.516,2.139c-0.344,0.676-0.748,1.295-1.21,1.858c-0.15,0.188-0.351,0.425-0.601,0.713
		c-0.25,0.288-0.494,0.594-0.732,0.919c-0.238,0.326-0.444,0.66-0.619,1.004c-0.175,0.345-0.263,0.667-0.263,0.967
		c0,0.275,0.084,0.45,0.253,0.525s0.391,0.112,0.666,0.112c0.525,0,1.095-0.156,1.708-0.469c0.613-0.312,1.21-0.691,1.792-1.136
		c0.582-0.443,1.126-0.906,1.632-1.389c0.507-0.481,0.91-0.885,1.21-1.21c0.075-0.087,0.163-0.15,0.263-0.188
		c0.1-0.038,0.2-0.057,0.3-0.057c0.225,0,0.429,0.101,0.61,0.3c0.181,0.2,0.272,0.463,0.272,0.788c0,0.25-0.075,0.526-0.226,0.826
		c-0.15,0.301-0.406,0.595-0.769,0.882c-0.676,0.651-1.367,1.273-2.074,1.867c-0.707,0.595-1.42,1.12-2.139,1.577
		c-0.72,0.456-1.439,0.822-2.158,1.098c-0.72,0.274-1.436,0.412-2.149,0.412c-0.926,0-1.673-0.219-2.242-0.656
		c-0.569-0.438-0.854-1.132-0.854-2.083c0-0.626,0.119-1.214,0.356-1.764c0.238-0.551,0.532-1.079,0.882-1.586
		c0.35-0.507,0.719-0.998,1.107-1.473s0.726-0.951,1.014-1.426c0.125-0.2,0.225-0.391,0.3-0.572
		c0.075-0.182,0.113-0.366,0.113-0.554c0-0.2-0.056-0.366-0.169-0.498c-0.112-0.131-0.275-0.197-0.488-0.197
		c-0.513,0-1.007,0.109-1.482,0.328c-0.476,0.219-0.932,0.507-1.37,0.863c-0.438,0.357-0.854,0.767-1.248,1.229
		c-0.394,0.463-0.763,0.941-1.107,1.436c-0.344,0.494-0.666,0.985-0.966,1.473c-0.3,0.488-0.576,0.933-0.826,1.333
		c-0.225,0.412-0.432,0.863-0.62,1.351c-0.188,0.488-0.391,0.938-0.61,1.352s-0.466,0.76-0.741,1.041s-0.619,0.423-1.032,0.423
		c-0.15,0-0.313-0.028-0.488-0.085s-0.334-0.135-0.479-0.234c-0.144-0.101-0.263-0.219-0.356-0.356S44.018,26.604,44.005,26.441z"/>
	<path d="M83.095,21.675c-0.226,0.213-0.525,0.507-0.901,0.882s-0.804,0.782-1.286,1.22c-0.481,0.438-0.995,0.879-1.539,1.323
		c-0.544,0.444-1.101,0.848-1.67,1.21c-0.569,0.363-1.129,0.66-1.679,0.892c-0.551,0.231-1.07,0.347-1.558,0.347
		c-0.438,0-0.813-0.094-1.126-0.281c-0.313-0.188-0.572-0.432-0.779-0.731c-0.207-0.301-0.36-0.642-0.46-1.023
		c-0.1-0.381-0.15-0.771-0.15-1.173c0-0.263,0.019-0.521,0.056-0.778c0.038-0.256,0.1-0.497,0.188-0.723
		c-0.388,0.525-0.829,1.066-1.323,1.623c-0.494,0.558-1.026,1.063-1.595,1.521s-1.163,0.832-1.783,1.126
		c-0.619,0.294-1.248,0.44-1.886,0.44c-0.326,0-0.704-0.065-1.135-0.196c-0.432-0.132-0.842-0.348-1.229-0.647
		c-0.388-0.301-0.713-0.688-0.976-1.164c-0.263-0.475-0.394-1.057-0.394-1.745c0-0.513,0.078-1.126,0.234-1.839
		s0.394-1.454,0.713-2.224c0.319-0.77,0.725-1.529,1.22-2.28c0.494-0.75,1.079-1.423,1.754-2.017
		c0.676-0.594,1.445-1.076,2.308-1.445s1.827-0.554,2.89-0.554c0.55,0,1.032,0.069,1.445,0.207c0.413,0.138,0.763,0.288,1.051,0.45
		c0.325,0.2,0.613,0.419,0.863,0.657c0.213-0.113,0.432-0.219,0.657-0.319c0.188-0.087,0.385-0.166,0.591-0.235
		c0.207-0.068,0.385-0.103,0.535-0.103c0.476,0,0.863,0.131,1.164,0.394s0.45,0.551,0.45,0.863c0,0.087-0.006,0.157-0.019,0.207
		c-0.062,0.238-0.16,0.538-0.291,0.9c-0.131,0.363-0.278,0.767-0.441,1.21c-0.163,0.444-0.328,0.907-0.497,1.389
		c-0.169,0.482-0.322,0.954-0.46,1.417s-0.25,0.897-0.338,1.304c-0.087,0.407-0.131,0.754-0.131,1.042
		c0,0.375,0.062,0.685,0.188,0.929c0.125,0.244,0.337,0.366,0.638,0.366c0.188,0,0.41-0.06,0.667-0.179
		c0.256-0.118,0.535-0.278,0.835-0.479c0.3-0.199,0.61-0.428,0.929-0.685c0.319-0.257,0.629-0.517,0.929-0.779
		c0.7-0.625,1.445-1.338,2.233-2.139c0.2-0.163,0.394-0.244,0.582-0.244c0.25,0,0.459,0.122,0.628,0.366
		c0.169,0.244,0.253,0.516,0.253,0.816C83.451,21.143,83.332,21.438,83.095,21.675z M70.09,16.833c-0.588,0-1.157,0.15-1.708,0.45
		c-0.551,0.3-1.039,0.694-1.464,1.183c-0.425,0.488-0.763,1.035-1.013,1.642c-0.25,0.607-0.375,1.217-0.375,1.83
		c0,0.25,0.016,0.51,0.047,0.778c0.031,0.27,0.104,0.517,0.216,0.741c0.113,0.226,0.272,0.413,0.479,0.563s0.485,0.225,0.835,0.225
		c0.275,0,0.598-0.122,0.967-0.365c0.369-0.244,0.75-0.557,1.145-0.938s0.779-0.801,1.154-1.258
		c0.375-0.456,0.713-0.903,1.013-1.341s0.544-0.832,0.732-1.182c0.188-0.35,0.281-0.607,0.281-0.77c0-0.238-0.082-0.453-0.244-0.647
		c-0.163-0.194-0.363-0.359-0.601-0.497c-0.238-0.138-0.491-0.241-0.76-0.31C70.524,16.868,70.29,16.833,70.09,16.833z"/>
	<path d="M87.692,16.139c0.488-0.3,0.992-0.575,1.511-0.826c0.519-0.25,1.023-0.466,1.511-0.647
		c0.488-0.181,0.954-0.325,1.398-0.432c0.444-0.106,0.841-0.16,1.191-0.16c0.563,0,0.998,0.135,1.304,0.404s0.46,0.722,0.46,1.36
		c0,0.138-0.006,0.285-0.019,0.441c-0.013,0.157-0.038,0.322-0.075,0.498c-0.063,0.325-0.25,0.707-0.563,1.145
		c-0.313,0.438-0.679,0.895-1.098,1.37c-0.419,0.476-0.87,0.954-1.351,1.436c-0.482,0.482-0.926,0.926-1.333,1.333
		c-0.407,0.406-0.745,0.76-1.013,1.06c-0.27,0.301-0.404,0.507-0.404,0.62c0,0.1,0.006,0.168,0.019,0.206
		c0.012,0.037,0.068,0.057,0.169,0.057c0.675-0.288,1.429-0.635,2.261-1.042c0.832-0.406,1.661-0.822,2.486-1.248
		c0.826-0.425,1.607-0.841,2.346-1.248c0.738-0.407,1.363-0.76,1.876-1.061c0.113-0.062,0.228-0.115,0.347-0.159
		c0.119-0.044,0.228-0.066,0.329-0.066c0.225,0,0.413,0.075,0.563,0.225c0.15,0.15,0.225,0.351,0.225,0.601
		c0,0.288-0.122,0.616-0.366,0.985c-0.244,0.369-0.654,0.754-1.229,1.154c-0.438,0.275-0.929,0.585-1.473,0.929
		c-0.544,0.345-1.114,0.701-1.708,1.07c-0.594,0.369-1.195,0.729-1.802,1.079c-0.607,0.35-1.191,0.663-1.754,0.938
		c-0.563,0.275-1.092,0.498-1.586,0.667s-0.922,0.253-1.285,0.253c-0.863,0-1.511-0.206-1.942-0.619s-0.647-0.944-0.647-1.596
		c0-0.1,0.006-0.175,0.019-0.225c0.087-0.551,0.25-1.082,0.488-1.595c0.237-0.514,0.507-1.001,0.807-1.464
		c0.3-0.463,0.613-0.904,0.938-1.323c0.325-0.419,0.622-0.813,0.892-1.182c0.269-0.369,0.491-0.71,0.666-1.023
		c0.175-0.312,0.263-0.601,0.263-0.863c0-0.062-0.013-0.125-0.038-0.188c-0.025-0.062-0.082-0.094-0.169-0.094
		c-0.15,0-0.397,0.056-0.741,0.169c-0.344,0.112-0.71,0.263-1.098,0.45c-0.388,0.188-0.757,0.403-1.107,0.647s-0.6,0.504-0.75,0.779
		c-0.2,0.35-0.432,0.794-0.694,1.333c-0.263,0.538-0.535,1.101-0.816,1.688c-0.281,0.589-0.553,1.17-0.816,1.745
		c-0.263,0.576-0.488,1.07-0.675,1.482c-0.15,0.363-0.347,0.688-0.591,0.977c-0.244,0.287-0.51,0.531-0.797,0.731
		c-0.288,0.2-0.582,0.356-0.882,0.469c-0.3,0.113-0.576,0.169-0.826,0.169c-0.288,0-0.516-0.074-0.685-0.225
		s-0.253-0.395-0.253-0.732c0-0.137,0.021-0.31,0.066-0.516c0.043-0.206,0.134-0.435,0.272-0.685
		c0.225-0.426,0.453-0.889,0.685-1.389c0.231-0.501,0.497-1.073,0.797-1.718c0.3-0.644,0.647-1.382,1.042-2.214
		s0.86-1.792,1.398-2.881c-0.175-0.15-0.322-0.334-0.441-0.554c-0.119-0.219-0.178-0.491-0.178-0.816c0-0.3,0.062-0.56,0.188-0.779
		s0.294-0.397,0.507-0.535c0.212-0.137,0.459-0.241,0.741-0.31c0.281-0.068,0.579-0.103,0.891-0.103c0.325,0,0.65,0.028,0.976,0.084
		c0.325,0.056,0.616,0.141,0.873,0.253c0.256,0.112,0.466,0.25,0.628,0.413c0.163,0.163,0.244,0.351,0.244,0.563
		c0,0.038-0.013,0.088-0.038,0.15s-0.053,0.131-0.084,0.206c-0.031,0.075-0.06,0.144-0.084,0.207
		c-0.025,0.063-0.038,0.113-0.038,0.15c0,0.025,0.006,0.037,0.019,0.037h0.019L87.692,16.139z"/>
	<path d="M102.029,17.471c0.475-0.488,0.979-0.973,1.511-1.455c0.532-0.481,1.088-0.913,1.67-1.295
		c0.582-0.381,1.192-0.691,1.83-0.929c0.638-0.237,1.308-0.356,2.008-0.356c0.413,0,0.838,0.047,1.276,0.141s0.835,0.247,1.192,0.46
		c0.356,0.213,0.647,0.488,0.873,0.826c0.225,0.337,0.337,0.75,0.337,1.238c0,0.801-0.185,1.526-0.553,2.177
		c-0.369,0.651-0.848,1.232-1.436,1.745c-0.588,0.513-1.242,0.966-1.961,1.361c-0.719,0.394-1.423,0.729-2.111,1.004
		c-0.175,0.075-0.338,0.172-0.488,0.291c-0.15,0.119-0.279,0.244-0.385,0.375c-0.106,0.132-0.191,0.263-0.253,0.395
		c-0.063,0.131-0.094,0.24-0.094,0.328c0,0.15,0.047,0.278,0.141,0.385s0.259,0.159,0.497,0.159c0.463,0,0.988-0.094,1.577-0.281
		c0.588-0.188,1.273-0.472,2.055-0.854s1.676-0.866,2.684-1.455c1.007-0.588,2.167-1.282,3.481-2.083
		c0.212-0.125,0.413-0.188,0.601-0.188c0.237,0,0.425,0.087,0.563,0.263c0.137,0.175,0.207,0.406,0.207,0.694
		c0,0.35-0.128,0.748-0.385,1.192c-0.257,0.443-0.685,0.866-1.286,1.267c-0.838,0.513-1.695,1.044-2.571,1.595
		c-0.876,0.551-1.777,1.054-2.702,1.511c-0.926,0.457-1.877,0.832-2.853,1.126s-1.977,0.44-3.002,0.44
		c-1.777,0-2.665-0.769-2.665-2.308c0-0.813,0.172-1.529,0.516-2.148c0.344-0.62,0.763-1.161,1.257-1.624s1.01-0.86,1.548-1.191
		c0.538-0.331,1-0.628,1.389-0.891c0.3-0.175,0.582-0.363,0.844-0.563s0.498-0.406,0.704-0.619c0.206-0.213,0.369-0.429,0.488-0.647
		c0.119-0.219,0.178-0.441,0.178-0.667c0-0.363-0.169-0.544-0.507-0.544c-1.251,0-3.002,1.208-5.254,3.622
		c-0.513,0.551-0.982,1.085-1.407,1.604s-0.823,1.029-1.192,1.529c-0.369,0.501-0.722,0.985-1.06,1.454
		c-0.338,0.47-0.669,0.917-0.995,1.342c-0.976,1.102-1.845,1.651-2.608,1.651c-0.363,0-0.625-0.065-0.788-0.196
		c-0.163-0.132-0.244-0.379-0.244-0.741c0-0.05,0-0.101,0-0.15s0.006-0.106,0.019-0.169c0.025-0.25,0.131-0.632,0.319-1.145
		s0.422-1.095,0.704-1.745c0.282-0.65,0.594-1.345,0.938-2.083c0.344-0.738,0.685-1.461,1.022-2.168
		c0.338-0.707,0.657-1.37,0.957-1.989c0.3-0.62,0.551-1.136,0.751-1.548l5.93-12.104c0.075-0.163,0.191-0.319,0.347-0.469
		c0.156-0.15,0.332-0.284,0.525-0.403c0.194-0.119,0.4-0.212,0.62-0.281c0.219-0.069,0.441-0.104,0.666-0.104
		c0.563,0,0.954,0.106,1.173,0.319c0.219,0.212,0.329,0.469,0.329,0.769c0,0.275-0.066,0.563-0.197,0.863s-0.285,0.582-0.46,0.845
		c-0.525,0.938-1.048,1.936-1.567,2.993s-1.035,2.13-1.548,3.218c-0.513,1.088-1.032,2.161-1.558,3.218
		S102.567,16.533,102.029,17.471z"/>
	<path d="M135.395,21.675c-0.225,0.213-0.525,0.507-0.9,0.882s-0.805,0.782-1.285,1.22c-0.482,0.438-0.995,0.879-1.539,1.323
		c-0.545,0.444-1.102,0.848-1.67,1.21c-0.57,0.363-1.129,0.66-1.68,0.892s-1.07,0.347-1.558,0.347c-0.438,0-0.813-0.094-1.126-0.281
		s-0.572-0.432-0.779-0.731c-0.206-0.301-0.359-0.642-0.459-1.023c-0.101-0.381-0.15-0.771-0.15-1.173
		c0-0.263,0.019-0.521,0.057-0.778c0.037-0.256,0.1-0.497,0.188-0.723c-0.389,0.525-0.829,1.066-1.323,1.623
		c-0.494,0.558-1.026,1.063-1.595,1.521c-0.57,0.457-1.164,0.832-1.783,1.126s-1.248,0.44-1.886,0.44
		c-0.326,0-0.704-0.065-1.135-0.196c-0.432-0.132-0.842-0.348-1.229-0.647c-0.388-0.301-0.713-0.688-0.976-1.164
		c-0.263-0.475-0.394-1.057-0.394-1.745c0-0.513,0.078-1.126,0.234-1.839s0.394-1.454,0.713-2.224c0.319-0.77,0.725-1.529,1.22-2.28
		c0.494-0.75,1.079-1.423,1.754-2.017c0.676-0.594,1.445-1.076,2.308-1.445c0.863-0.369,1.827-0.554,2.891-0.554
		c0.551,0,1.032,0.069,1.445,0.207c0.412,0.138,0.763,0.288,1.051,0.45c0.324,0.2,0.612,0.419,0.863,0.657
		c0.213-0.113,0.432-0.219,0.656-0.319c0.188-0.087,0.385-0.166,0.592-0.235c0.206-0.068,0.385-0.103,0.534-0.103
		c0.476,0,0.863,0.131,1.163,0.394c0.301,0.263,0.451,0.551,0.451,0.863c0,0.087-0.007,0.157-0.02,0.207
		c-0.062,0.238-0.159,0.538-0.291,0.9c-0.131,0.363-0.277,0.767-0.44,1.21c-0.163,0.444-0.328,0.907-0.497,1.389
		c-0.169,0.482-0.322,0.954-0.46,1.417s-0.251,0.897-0.338,1.304c-0.087,0.407-0.132,0.754-0.132,1.042
		c0,0.375,0.062,0.685,0.188,0.929c0.124,0.244,0.337,0.366,0.638,0.366c0.188,0,0.41-0.06,0.666-0.179
		c0.257-0.118,0.535-0.278,0.836-0.479c0.3-0.199,0.609-0.428,0.928-0.685c0.32-0.257,0.629-0.517,0.93-0.779
		c0.7-0.625,1.445-1.338,2.232-2.139c0.201-0.163,0.395-0.244,0.582-0.244c0.25,0,0.46,0.122,0.629,0.366
		c0.169,0.244,0.254,0.516,0.254,0.816C135.752,21.143,135.633,21.438,135.395,21.675z M122.391,16.833
		c-0.589,0-1.158,0.15-1.708,0.45c-0.551,0.3-1.039,0.694-1.464,1.183c-0.425,0.488-0.763,1.035-1.013,1.642
		c-0.25,0.607-0.375,1.217-0.375,1.83c0,0.25,0.016,0.51,0.047,0.778c0.031,0.27,0.104,0.517,0.216,0.741
		c0.113,0.226,0.272,0.413,0.479,0.563s0.485,0.225,0.835,0.225c0.275,0,0.598-0.122,0.967-0.365
		c0.369-0.244,0.75-0.557,1.145-0.938s0.779-0.801,1.154-1.258c0.375-0.456,0.713-0.903,1.014-1.341
		c0.3-0.438,0.543-0.832,0.731-1.182c0.188-0.35,0.281-0.607,0.281-0.77c0-0.238-0.081-0.453-0.243-0.647
		c-0.164-0.194-0.363-0.359-0.602-0.497c-0.237-0.138-0.49-0.241-0.76-0.31C122.824,16.868,122.59,16.833,122.391,16.833z"/>
	<path d="M144.439,24.114c-1.062,1.276-2.192,2.211-3.387,2.806c-1.195,0.594-2.486,0.891-3.875,0.891
		c-0.764,0-1.408-0.109-1.934-0.328s-0.951-0.516-1.275-0.892c-0.326-0.375-0.561-0.812-0.704-1.313
		c-0.144-0.5-0.216-1.032-0.216-1.595c0-0.638,0.082-1.298,0.244-1.979c0.162-0.683,0.375-1.342,0.639-1.98
		c0.174-0.413,0.318-0.757,0.432-1.032c0.111-0.275,0.205-0.51,0.281-0.704c0.074-0.194,0.141-0.363,0.197-0.507
		c0.056-0.144,0.115-0.294,0.178-0.45c0.062-0.157,0.137-0.338,0.225-0.544s0.207-0.472,0.357-0.797l5.479-12.179
		c0.076-0.163,0.186-0.319,0.329-0.469c0.144-0.15,0.31-0.284,0.497-0.403c0.188-0.119,0.391-0.212,0.609-0.281
		s0.441-0.104,0.667-0.104c0.575,0,0.979,0.113,1.21,0.338s0.348,0.5,0.348,0.826c0,0.25-0.062,0.522-0.188,0.816
		s-0.264,0.566-0.413,0.816c-0.927,1.776-1.802,3.581-2.628,5.414c-0.825,1.833-1.701,3.644-2.627,5.433
		c0.4-0.312,0.826-0.616,1.276-0.91c0.45-0.293,0.919-0.556,1.407-0.788c0.488-0.231,0.994-0.419,1.521-0.563
		c0.525-0.144,1.063-0.216,1.614-0.216c0.387,0,0.781,0.075,1.182,0.226c0.4,0.15,0.766,0.369,1.098,0.657s0.601,0.641,0.807,1.06
		c0.207,0.419,0.311,0.904,0.311,1.455c0,0.125-0.038,0.375-0.113,0.75c-0.074,0.375-0.185,0.797-0.328,1.267
		c-0.145,0.469-0.319,0.951-0.525,1.445c-0.207,0.495-0.436,0.929-0.686,1.305c0.088,0.138,0.2,0.222,0.338,0.253
		s0.294,0.047,0.469,0.047c0.576,0,1.148-0.075,1.718-0.225c0.569-0.15,1.107-0.335,1.614-0.554
		c0.506-0.219,0.973-0.447,1.397-0.685s0.782-0.444,1.069-0.62c0.15-0.162,0.312-0.244,0.488-0.244c0.213,0,0.396,0.094,0.554,0.281
		c0.156,0.188,0.234,0.432,0.234,0.732c0,0.288-0.06,0.572-0.179,0.854c-0.118,0.282-0.334,0.592-0.646,0.93
		c-0.563,0.337-1.129,0.656-1.699,0.957c-0.568,0.3-1.147,0.56-1.735,0.778s-1.186,0.395-1.792,0.525
		c-0.607,0.132-1.223,0.197-1.849,0.197c-0.4,0-0.769-0.057-1.106-0.169S144.689,24.352,144.439,24.114z M142.863,16.552
		c-0.713,0-1.426,0.172-2.139,0.516c-0.713,0.344-1.355,0.798-1.924,1.361c-0.569,0.563-1.035,1.198-1.398,1.905
		s-0.544,1.423-0.544,2.148c0,0.2,0.019,0.403,0.056,0.61c0.038,0.206,0.116,0.396,0.235,0.572c0.118,0.175,0.29,0.318,0.517,0.432
		c0.225,0.112,0.525,0.169,0.9,0.169c0.725,0,1.429-0.172,2.111-0.517c0.682-0.344,1.291-0.798,1.829-1.36
		c0.538-0.563,0.97-1.198,1.295-1.905s0.487-1.417,0.487-2.13c0-0.188-0.016-0.388-0.047-0.601
		c-0.031-0.212-0.097-0.406-0.196-0.582c-0.101-0.175-0.244-0.322-0.432-0.441C143.426,16.611,143.176,16.552,142.863,16.552z"/>
	<path d="M153.598,21.656c-0.138,0.287-0.271,0.622-0.403,1.004s-0.197,0.722-0.197,1.022c0,0.188,0.038,0.338,0.112,0.45
		c0.075,0.112,0.219,0.169,0.432,0.169c0.264,0,0.592-0.078,0.985-0.234s0.819-0.363,1.276-0.619
		c0.457-0.257,0.932-0.551,1.426-0.882c0.494-0.332,0.985-0.676,1.474-1.032c0.487-0.356,0.954-0.713,1.397-1.07
		c0.444-0.357,0.842-0.685,1.191-0.985c0.101-0.087,0.219-0.15,0.357-0.188c0.137-0.038,0.256-0.057,0.356-0.057
		c0.25,0,0.456,0.088,0.619,0.263c0.163,0.175,0.244,0.407,0.244,0.694c0,0.263-0.088,0.557-0.263,0.882
		c-0.176,0.325-0.482,0.645-0.92,0.957c-0.801,0.738-1.607,1.438-2.42,2.102c-0.814,0.663-1.624,1.248-2.431,1.755
		c-0.808,0.507-1.608,0.91-2.402,1.21c-0.794,0.301-1.567,0.45-2.317,0.45c-0.514,0-0.941-0.068-1.285-0.206
		c-0.345-0.138-0.619-0.325-0.826-0.562c-0.207-0.238-0.354-0.52-0.441-0.845c-0.087-0.325-0.131-0.669-0.131-1.032
		c0-0.613,0.091-1.241,0.271-1.886c0.182-0.645,0.397-1.235,0.648-1.773c0.438-0.976,0.882-1.945,1.332-2.909
		s0.863-1.845,1.238-2.646l5.686-12.104c0.227-0.488,0.529-0.832,0.91-1.032c0.383-0.2,0.767-0.3,1.154-0.3
		c0.389,0,0.742,0.106,1.061,0.319c0.319,0.212,0.479,0.557,0.479,1.032c0,0.225-0.053,0.463-0.159,0.713s-0.241,0.519-0.403,0.807
		c-0.312,0.588-0.686,1.308-1.117,2.158c-0.432,0.851-0.895,1.776-1.389,2.777s-1,2.042-1.52,3.125s-1.025,2.136-1.52,3.162
		c-0.495,1.026-0.957,1.999-1.389,2.918S153.91,20.98,153.598,21.656z"/>
	<path d="M168.779,13.417c1.038,0,1.813,0.25,2.326,0.751c0.514,0.5,0.77,1.195,0.77,2.083c0,0.525-0.137,1.076-0.412,1.651
		c-0.275,0.575-0.751,1.16-1.427,1.754c-0.675,0.594-1.579,1.201-2.712,1.82c-1.132,0.619-2.549,1.242-4.25,1.867
		c0.062,0.363,0.256,0.647,0.582,0.854c0.324,0.207,0.756,0.31,1.295,0.31c0.574,0,1.191-0.084,1.848-0.253
		c0.657-0.169,1.308-0.385,1.952-0.647c0.644-0.263,1.272-0.547,1.886-0.854s1.166-0.598,1.66-0.873
		c0.494-0.274,0.908-0.513,1.239-0.713s0.554-0.325,0.666-0.375c0.112-0.075,0.216-0.119,0.31-0.131
		c0.094-0.012,0.179-0.019,0.254-0.019c0.15,0,0.275,0.035,0.375,0.103c0.1,0.069,0.185,0.15,0.254,0.244
		c0.068,0.094,0.115,0.194,0.141,0.301c0.024,0.106,0.037,0.197,0.037,0.271c0,0.113-0.013,0.248-0.037,0.404
		c-0.025,0.156-0.119,0.334-0.281,0.534c-0.063,0.063-0.273,0.231-0.629,0.507c-0.357,0.275-0.816,0.601-1.38,0.976
		c-0.563,0.376-1.217,0.773-1.961,1.192c-0.745,0.419-1.532,0.804-2.364,1.153c-0.832,0.351-1.698,0.642-2.6,0.873
		c-0.9,0.231-1.789,0.347-2.664,0.347c-0.751,0-1.417-0.144-1.999-0.432c-0.581-0.287-1.075-0.675-1.482-1.163
		s-0.716-1.051-0.929-1.688c-0.213-0.639-0.318-1.308-0.318-2.009c0-0.537,0.105-1.129,0.318-1.773s0.52-1.292,0.92-1.942
		c0.4-0.65,0.891-1.285,1.473-1.905c0.582-0.619,1.235-1.166,1.961-1.642s1.523-0.857,2.393-1.145
		C166.861,13.562,167.791,13.417,168.779,13.417z M168.104,16.007c-0.062-0.012-0.119-0.019-0.169-0.019s-0.106,0-0.169,0
		c-0.476,0-0.92,0.094-1.332,0.281c-0.413,0.188-0.791,0.435-1.136,0.741c-0.345,0.307-0.65,0.654-0.919,1.042
		c-0.27,0.388-0.51,0.772-0.723,1.154s-0.392,0.748-0.535,1.098c-0.145,0.351-0.254,0.645-0.328,0.882
		c0.438-0.225,0.891-0.481,1.36-0.769c0.47-0.288,0.91-0.563,1.323-0.826c0.412-0.263,0.771-0.5,1.078-0.713
		c0.307-0.212,0.523-0.356,0.648-0.432c0.562-0.35,0.95-0.678,1.163-0.985c0.212-0.306,0.319-0.572,0.319-0.797
		c0-0.188-0.061-0.338-0.179-0.45C168.388,16.101,168.254,16.033,168.104,16.007z"/>
	<path d="M182.479,24.471c0,0.388-0.072,0.757-0.217,1.107c-0.144,0.351-0.338,0.66-0.582,0.929
		c-0.243,0.27-0.527,0.481-0.854,0.638c-0.325,0.156-0.669,0.234-1.031,0.234c-0.301,0-0.582-0.059-0.846-0.178
		c-0.262-0.119-0.49-0.278-0.684-0.479c-0.195-0.2-0.348-0.435-0.461-0.704c-0.112-0.269-0.168-0.554-0.168-0.854
		c0-0.375,0.071-0.734,0.215-1.079c0.145-0.344,0.342-0.647,0.592-0.91s0.544-0.472,0.882-0.629c0.338-0.156,0.7-0.234,1.089-0.234
		c0.612,0,1.109,0.206,1.492,0.619C182.287,23.345,182.479,23.857,182.479,24.471z"/>
	<path d="M189.553,24.696c0.75-0.639,1.711-1.361,2.881-2.168c1.169-0.807,2.592-1.717,4.269-2.73
		c0.188-0.112,0.368-0.169,0.544-0.169c0.275,0,0.504,0.113,0.686,0.338c0.181,0.225,0.271,0.5,0.271,0.826
		c0,0.326-0.125,0.679-0.375,1.06c-0.25,0.382-0.67,0.723-1.258,1.023l-6.342,4.354c-0.275,0.25-0.523,0.466-0.742,0.647
		c-0.219,0.181-0.438,0.356-0.656,0.525s-0.444,0.338-0.676,0.507s-0.491,0.353-0.779,0.553c-0.613,1.052-1.163,1.942-1.65,2.675
		c-0.488,0.731-0.97,1.325-1.445,1.782s-0.963,0.791-1.464,1.004c-0.5,0.213-1.069,0.319-1.708,0.319
		c-0.588,0-0.997-0.116-1.229-0.347c-0.231-0.232-0.348-0.554-0.348-0.967c0-0.388,0.182-0.779,0.545-1.173
		c0.362-0.395,0.787-0.801,1.275-1.22c0.488-0.42,0.979-0.863,1.473-1.333c0.495-0.469,0.873-0.979,1.136-1.529
		c0.338-0.7,0.698-1.451,1.079-2.252c0.382-0.8,0.766-1.613,1.154-2.439c0.388-0.825,0.779-1.647,1.173-2.468
		c0.394-0.819,0.77-1.601,1.126-2.345s0.694-1.436,1.014-2.074c0.318-0.638,0.597-1.182,0.834-1.633
		c0.251-0.475,0.573-0.822,0.967-1.042c0.395-0.219,0.779-0.328,1.154-0.328c0.4,0,0.744,0.113,1.032,0.338s0.432,0.544,0.432,0.957
		c0,0.275-0.022,0.525-0.065,0.75c-0.045,0.225-0.129,0.479-0.254,0.76c-0.125,0.281-0.291,0.619-0.497,1.013
		s-0.472,0.891-0.798,1.492c-0.325,0.601-0.713,1.33-1.163,2.186C190.697,22.447,190.165,23.482,189.553,24.696z M192.855,10.847
		c0.012-0.288,0.078-0.584,0.197-0.891c0.118-0.307,0.291-0.585,0.516-0.835c0.225-0.25,0.5-0.457,0.826-0.619
		c0.324-0.163,0.706-0.244,1.145-0.244c0.688,0,1.172,0.129,1.454,0.385c0.281,0.257,0.422,0.579,0.422,0.967
		c0,0.25-0.047,0.522-0.141,0.816c-0.094,0.294-0.237,0.573-0.432,0.835s-0.447,0.481-0.76,0.657
		c-0.313,0.175-0.688,0.263-1.126,0.263c-0.775,0-1.316-0.122-1.623-0.366C193.027,11.569,192.867,11.247,192.855,10.847z"/>
	<path d="M201.807,16.514c0.763,0.4,1.445,0.857,2.045,1.37c0.601,0.513,1.11,1.054,1.529,1.624c0.42,0.569,0.738,1.148,0.957,1.736
		s0.329,1.163,0.329,1.727c0,0.713-0.204,1.354-0.61,1.923c-0.406,0.569-0.938,1.051-1.595,1.445s-1.407,0.694-2.252,0.9
		c-0.845,0.207-1.698,0.31-2.562,0.31c-0.65,0-1.283-0.071-1.896-0.216c-0.613-0.144-1.173-0.365-1.68-0.666
		c-0.507-0.3-0.941-0.685-1.304-1.154c-0.363-0.469-0.619-1.028-0.77-1.679c-0.025-0.101-0.037-0.182-0.037-0.244
		c0-0.338,0.119-0.629,0.355-0.873c0.238-0.244,0.5-0.365,0.789-0.365c0.137,0,0.291,0.024,0.459,0.074
		c0.17,0.051,0.297,0.163,0.385,0.338c0.162,0.301,0.391,0.569,0.686,0.808c0.293,0.237,0.622,0.44,0.984,0.609
		c0.363,0.169,0.748,0.301,1.154,0.395s0.805,0.141,1.191,0.141c0.4,0,0.785-0.038,1.154-0.113c0.369-0.074,0.695-0.193,0.977-0.356
		c0.281-0.162,0.503-0.368,0.666-0.619c0.162-0.25,0.244-0.557,0.244-0.919c0-0.639-0.145-1.227-0.432-1.765
		c-0.289-0.538-0.66-1.035-1.117-1.492c-0.457-0.457-0.976-0.882-1.557-1.276c-0.582-0.394-1.161-0.772-1.736-1.135
		c-0.062-0.038-0.156-0.147-0.281-0.329c-0.125-0.181-0.188-0.366-0.188-0.554c0-0.15,0.037-0.269,0.111-0.356
		c0.201-0.263,0.432-0.531,0.695-0.807c0.262-0.275,0.544-0.528,0.844-0.76c0.301-0.231,0.626-0.419,0.977-0.563
		c0.35-0.144,0.713-0.216,1.088-0.216c0.275,0,0.531,0.038,0.77,0.113c0.237,0.075,0.438,0.172,0.601,0.291
		c0.163,0.119,0.291,0.25,0.385,0.394c0.094,0.144,0.141,0.278,0.141,0.403c0,0.175-0.044,0.344-0.132,0.507
		s-0.203,0.319-0.347,0.469c-0.144,0.15-0.307,0.3-0.487,0.451C202.16,16.232,201.981,16.376,201.807,16.514z"/>
</g>
<g>
</g>
<g>
</g>
<g>
</g>
<g>
</g>
<g>
</g>
<g>
</g>
<g>
</g>
<g>
</g>
<g>
</g>
<g>
</g>
<g>
</g>
<g>
</g>
<g>
</g>
<g>
</g>
<g>
</g>
</svg>
