<?xml version="1.0" encoding="utf-8"?>
<!-- Generator: Adobe Illustrator 16.0.3, SVG Export Plug-In . SVG Version: 6.00 Build 0)  -->
<!DOCTYPE svg PUBLIC "-//W3C//DTD SVG 1.1//EN" "http://www.w3.org/Graphics/SVG/1.1/DTD/svg11.dtd">
<svg version="1.1" id="Layer_1" xmlns="http://www.w3.org/2000/svg" xmlns:xlink="http://www.w3.org/1999/xlink" x="0px" y="0px"
	 width="593.45px" height="121.645px" viewBox="0 0 593.45 121.645" enable-background="new 0 0 593.45 121.645"
	 xml:space="preserve">
<g id="Todd_Siler">
	<path fill-rule="evenodd" clip-rule="evenodd" d="M371.071,38.768c-16.891,0.947-33.449,3.494-48.934,10.754
		c-6.203,2.908-11.816,6.7-16.855,11.471c-10.204,9.664-18.635,20.854-27.812,31.403c-4.039,4.643-8.347,9.067-12.763,13.354
		c-1.618,1.571-3.786,2.774-5.919,3.547c-1.396,0.506-3.321,0.287-4.744-0.276c-0.947-0.376-1.874-1.897-1.956-2.972
		c-0.054-0.704,1.376-2.14,2.209-2.193c5.014-0.319,8.179-3.568,11.171-6.894c8.909-9.897,17.723-19.882,26.454-29.937
		c7.468-8.598,15.201-16.965,25.554-22.054c6.688-3.288,13.678-6.276,20.855-8.191c12.059-3.22,24.424-5.052,36.99-5.138
		c5.648-0.039,11.295-0.65,16.939-0.621c6.148,0.031,12.299,0.438,18.438,0.838c1.453,0.096,2.988,0.606,4.248,1.336
		c0.881,0.512,2.027,1.882,1.859,2.581c-0.254,1.062-1.389,2.312-2.436,2.69c-1.506,0.545-3.273,0.346-4.924,0.523
		c-5.445,0.588-10.963,0.834-16.314,1.905c-5.883,1.177-6.949,3.079-6.922,9.12c0.023,5.423,2.258,10.023,5.293,14.289
		c2.219,3.117,4.688,6.059,6.986,9.121c1.396,1.863,2.836,3.722,3.992,5.734c3.973,6.915,3.277,13.438-2.289,19.176
		c-2.055,2.117-4.539,3.961-7.123,5.401c-12.234,6.827-24.781,12.973-38.514,16.282c-2.381,0.574-4.75,1.236-7.162,1.619
		c-0.545,0.086-1.627-0.727-1.773-1.302c-0.148-0.583,0.373-1.763,0.916-2.022c2.24-1.074,4.596-1.906,6.914-2.811
		c7.744-3.016,15.633-5.715,23.189-9.143c5.279-2.395,10.174-5.678,15.107-8.773c2.092-1.312,3.926-3.074,5.736-4.782
		c2.893-2.729,3.455-6.171,1.793-9.614c-1.873-3.879-4.166-7.568-6.441-11.24c-2.543-4.103-5.422-8-7.877-12.152
		c-3.365-5.694-5.535-11.777-4.324-18.561c0.328-1.834-0.404-2.465-2.064-2.469C376.071,38.764,373.571,38.768,371.071,38.768z"/>
	<path fill-rule="evenodd" clip-rule="evenodd" d="M93.438,103.546c14.324,0.925,28.554-0.403,42.794-1.667
		c9.106-0.809,18.222-1.779,27.35-2.001c8.114-0.196,16.281,0.018,23.602,4.784c1.628,1.061,4.559,0.767,6.701,0.274
		c8.694-1.997,16.383-6.351,24.093-10.687c11.08-6.23,21.399-13.492,30.793-22.031c4.417-4.017,8.552-8.345,12.817-12.527
		c0.475-0.467,0.898-1.084,1.474-1.33c1.097-0.468,2.286-0.719,3.437-1.06c-0.304,1.04-0.366,2.247-0.951,3.093
		c-5.421,7.842-11.605,15.09-18.906,21.185c-13.616,11.365-28.402,20.94-45.003,27.476c-1.549,0.609-3.137,1.121-4.676,1.754
		c-5.997,2.468-11.504,1.973-17.011-1.77c-2.175-1.479-5.272-2.062-7.993-2.197c-11.992-0.598-23.908,0.717-35.861,1.584
		c-13.426,0.974-26.925,0.958-40.392,1.356c-1.664,0.05-3.331,0.019-4.996-0.015c-2.061-0.041-3.909,0.153-5.224,2.162
		c-0.593,0.904-1.747,1.539-2.77,2.045c-2.564,1.271-4.897,0.609-6.005-1.551c-0.998-1.943-0.37-4.217,1.961-5.504
		c3.481-1.923,6.999-3.928,11.27-3.396C91.091,103.668,92.272,103.546,93.438,103.546z"/>
	<path fill-rule="evenodd" clip-rule="evenodd" d="M114.575,78.002c3.169-2.074,6.403-4.057,9.493-6.244
		c5.422-3.837,10.791-7.753,16.088-11.76c0.781-0.591,1.047-1.86,1.552-2.815c-1.011-0.46-2.02-1.313-3.032-1.317
		c-7.493-0.025-15.055-0.498-22.469,0.314c-34.329,3.758-67.833,11.77-101.16,20.527c-4.127,1.085-7.94,3.334-11.948,4.922
		c-0.915,0.361-2.03,0.218-3.053,0.307c0.063-1.216-0.28-2.692,0.291-3.584c0.759-1.185,2.104-2.196,3.42-2.782
		c3.186-1.418,6.406-2.96,9.777-3.726c25.312-5.746,50.597-11.649,76.029-16.817c14.817-3.011,29.928-4.478,45.066-5.079
		c2.95-0.117,6.014,0.334,8.885,1.068c5.121,1.311,6.653,5.967,3.164,10.001c-2.026,2.343-4.641,4.356-7.345,5.895
		c-6.944,3.95-14.075,7.574-21.164,11.266c-0.953,0.496-2.095,0.628-3.15,0.928C114.871,78.736,114.723,78.369,114.575,78.002z"/>
	<path fill-rule="evenodd" clip-rule="evenodd" d="M478.239,115.404c1.238-4.189,1.865-7.877,3.391-11.145
		c3.367-7.215,6.574-14.627,10.955-21.223c8.732-13.148,17.832-26.096,27.498-38.57c8.434-10.885,17.275-21.52,27.566-30.812
		c1.184-1.068,4.387-2.081,1.537-4.763c-0.109-0.104,0.447-1.291,0.932-1.592c3.779-2.35,7.582-4.668,11.455-6.857
		c1.479-0.834,3.25-0.504,3.812,1.095c0.41,1.167,0.27,3.166-0.494,3.996c-3.139,3.415-6.658,6.478-9.951,9.756
		c-8.709,8.673-17.801,17.015-25.939,26.196c-8.033,9.061-15.219,18.891-22.535,28.564c-7.547,9.975-13.855,20.744-18.816,32.229
		c-1.562,3.619-2.258,7.613-3.324,11.443c-0.178,0.637-0.109,1.354-0.344,1.961c-0.666,1.729-0.455,4.732-3.154,4.117
		C479.626,119.527,478.989,116.773,478.239,115.404z"/>
	<path fill-rule="evenodd" clip-rule="evenodd" d="M511.358,108.781c2.217-0.174,4.545,0.026,6.631-0.594
		c5.406-1.608,10.672-3.688,16.064-5.35c2.338-0.721,5.014-1.615,7.244-1.119c3.518,0.782,6.166-0.395,8.865-2.044
		c11.959-7.309,25.205-11.027,38.736-13.956c1.133-0.246,2.281-0.47,3.434-0.539c0.369-0.021,0.973,0.419,1.094,0.775
		c0.109,0.317-0.189,1.023-0.504,1.19c-1.312,0.696-2.66,1.379-4.068,1.84c-5.373,1.759-10.748,3.521-16.172,5.114
		c-11.244,3.305-21.127,8.777-28.951,17.67c-0.986,1.12-1.969,2.485-3.252,3.035c-1.334,0.57-3.273,0.783-4.482,0.195
		c-0.75-0.363-0.742-2.502-0.852-3.862c-0.047-0.587,0.592-1.201,0.693-1.839c0.094-0.59,0.098-1.46-0.25-1.777
		c-0.334-0.304-1.227-0.215-1.777-0.022c-4.072,1.415-8.078,3.036-12.191,4.315c-2.836,0.883-5.793,1.771-8.725,1.873
		c-6.771,0.234-9.953-4.896-7.131-11.004c2.102-4.551,6.48-7.386,11.047-7.152c3.08,0.158,4.658,1.428,5.412,4.213
		c0.684,2.529-0.377,4.363-2.508,5.359c-2.617,1.223-5.424,2.043-8.148,3.037C511.497,108.354,511.427,108.568,511.358,108.781z"/>
	<path fill-rule="evenodd" clip-rule="evenodd" d="M518.722,24.721c-0.41,0.268-0.799,0.582-1.234,0.799
		c-16.713,8.316-33.6,16.188-52.131,19.662c-1.934,0.363-3.969,0.488-5.924,0.326c-1.449-0.119-3.287-0.826-2.803-2.709
		c0.229-0.885,1.83-1.761,2.949-2.001c2.42-0.521,4.953-0.496,7.396-0.937c3.918-0.705,7.92-1.246,11.676-2.493
		c12.152-4.033,24.209-8.358,36.305-12.563c1.057-0.367,2.133-0.676,3.199-1.012C518.345,24.102,518.534,24.41,518.722,24.721z"/>
	<path fill-rule="evenodd" clip-rule="evenodd" d="M60.71,92.48c0.701,0.373,1.705,0.582,2,1.154
		c0.295,0.574,0.009,1.561-0.259,2.277c-0.221,0.59-0.722,1.127-1.211,1.559c-4.859,4.289-9.676,8.629-14.657,12.772
		c-1.52,1.265-3.54,3.597-5.54,1.221c-1.742-2.069,0.144-4.29,1.687-5.618c4.899-4.219,10.02-8.184,15.112-12.172
		C58.586,93.09,59.646,92.908,60.71,92.48z"/>
	<path fill-rule="evenodd" clip-rule="evenodd" d="M421.995,107.968c-0.43-0.89-1.387-1.913-1.221-2.701
		c0.707-3.376,2.602-6.112,5.6-7.878c0.41-0.24,1.963,0.455,2.125,0.982c0.547,1.773-2.834,8.15-4.576,9.037
		C423.497,107.626,422.991,107.686,421.995,107.968z"/>
</g>
</svg>
